<?xml version="1.0" encoding="UTF-8" standalone="no"?> <svg id="Layer_1" data-name="Layer 1" xmlns="http://www.w3.org/2000/svg" viewBox="0 0 512 512"><defs><style>.cls-1{fill:#40c168;}.cls-2{fill:#1f8c3e;}.cls-3{fill:#3aad5a;}</style></defs><title>dollar-post-flat</title><rect class="cls-1" y="102.4" width="512" height="307.2" rx="64" ry="64"/><circle class="cls-2" cx="256" cy="256" r="102.4"/><path class="cls-1" d="M260.63,207.23c3.31,0,4.38,1.07,4.38,4.26v4.85c9.59,1.66,16.34,6.75,20.36,15.39,1.78,3.32.95,5.09-2.72,6.63L274.47,242c-3.19,1.42-4.73.95-6.51-2.37-2.37-4.62-5.44-6.87-12-6.87-8.41,0-12,1.77-12,6.87,0,4.38,5,6,14.09,7a82.33,82.33,0,0,1,13.49,2.25,23,23,0,0,1,6.4,2.72c5.33,3.2,10.42,9.35,9.94,19.53,0,12.66-8.28,21.43-23,24.15v5.09c0,3.32-1.06,4.38-4.38,4.38h-9c-3.2,0-4.38-1.06-4.38-4.38v-4.85c-11.6-1.78-19.17-7.58-22.84-17.28q-1.6-4.62,3.19-6.39l8.05-2.84c3.43-1.3,5.09-.59,6.63,2.84,1.89,4.86,6.28,7.22,13,7.22,9,0,13.5-2.49,13.5-7.58,0-4.73-4.62-6.27-14-7.22-6.63-.83-10.06-1.18-16.1-3.55a20.61,20.61,0,0,1-7.34-4.14c-3.67-3.2-6.75-9.23-6.75-16.93,0-12.43,7.93-21,22.61-23.32v-4.85c0-3.2,1.19-4.26,4.38-4.26Z"/><path class="cls-3" d="M115.2,115.2A102.54,102.54,0,0,1,12.8,217.6,94.84,94.84,0,0,1,0,216.77V190.85A71.7,71.7,0,0,0,12.8,192a76.86,76.86,0,0,0,76.8-76.8,71.58,71.58,0,0,0-1.15-12.8h25.92A94.83,94.83,0,0,1,115.2,115.2Z"/><path class="cls-3" d="M512,190.85v25.92a94.84,94.84,0,0,1-12.8.83A102.54,102.54,0,0,1,396.8,115.2a94.83,94.83,0,0,1,.83-12.8h25.92a71.58,71.58,0,0,0-1.15,12.8A76.86,76.86,0,0,0,499.2,192,71.7,71.7,0,0,0,512,190.85Z"/><path class="cls-3" d="M115.2,396.8a94.85,94.85,0,0,1-.83,12.8H88.45a71.59,71.59,0,0,0,1.15-12.8A76.86,76.86,0,0,0,12.8,320,71.7,71.7,0,0,0,0,321.15V295.23a94.84,94.84,0,0,1,12.8-.83A102.54,102.54,0,0,1,115.2,396.8Z"/><path class="cls-3" d="M512,295.23v25.92A71.7,71.7,0,0,0,499.2,320a76.86,76.86,0,0,0-76.8,76.8,71.59,71.59,0,0,0,1.15,12.8H397.63a94.85,94.85,0,0,1-.83-12.8A102.54,102.54,0,0,1,499.2,294.4,94.84,94.84,0,0,1,512,295.23Z"/></svg>